<svg width="300" height="300" viewBox="0 0 300 300" xmlns="http://www.w3.org/2000/svg">
  <rect width="100%" height="100%" fill="#4682B4"/>
  <g transform="rotate(-30 150 150)" stroke="#46B482" stroke-width="5" fill="none">
    <!-- Cuerpo del cohete -->
    <path d="M150 80 C160 100, 140 100, 150 120 C155 130, 145 130, 150 140 C155 150, 145 150, 150 160 C155 170, 145 170, 150 180 C155 190, 145 190, 150 200 C155 210, 145 210, 150 220"/>
    <!-- Ventana -->
    <circle cx="150" cy="140" r="10"/>
    <!-- Aletas -->
    <path d="M140 200 L130 220 L150 210 Z"/>
    <path d="M160 200 L170 220 L150 210 Z"/>
    <!-- Humo de propulsión -->
    <path d="M150 220 C140 240, 160 240, 150 260 C140 280, 160 280, 150 300"/>
  </g>
</svg>