<?xml version="1.0" encoding="utf-8"?>
<!-- Generator: Adobe Illustrator 26.3.1, SVG Export Plug-In . SVG Version: 6.00 Build 0)  -->
<svg version="1.1" id="Layer_1" xmlns="http://www.w3.org/2000/svg" xmlns:xlink="http://www.w3.org/1999/xlink" x="0px" y="0px"
	 viewBox="0 0 500 500" style="enable-background:new 0 0 500 500;" xml:space="preserve">
<style type="text/css">
	.st0{fill:#4682B4;}
	.st1{fill:#093F68;}
	.st2{fill:#FFFFFF;}
	.st3{fill:#DFEAEF;}
	.st4{fill:#F56132;}
	.st5{fill:#FFBC0E;}
	.st6{fill:#70CC40;}
</style>
<g id="device">
	<path class="st0" d="M49.6,377.5h400.8l0,0v13.4c0,8.9-7.2,16.1-16.1,16.1H65.7c-8.9,0-16.1-7.2-16.1-16.1l0,0V377.5L49.6,377.5z"
		/>
	<path class="st1" d="M432.5,408.9H67.4c-10.9,0-19.7-8.8-19.7-19.7v-11.6c0-1,0.8-1.9,1.8-1.9c0,0,0,0,0,0h400.8
		c1,0,1.9,0.8,1.9,1.8c0,0,0,0,0,0v11.6C452.2,400,443.4,408.8,432.5,408.9z M51.5,379.4v9.8c0,8.8,7.2,16,16,16h365.1
		c8.8,0,16-7.2,16-16v-9.8H51.5z"/>
	<path class="st0" d="M91.7,173.3h316.6c8.3,0,15.1,6.8,15.1,15.1v189.2l0,0H76.6l0,0V188.4C76.6,180,83.4,173.3,91.7,173.3z"/>
	<path class="st1" d="M423.4,379.4H76.6c-1,0-1.9-0.8-1.9-1.9V189.1c0-9.8,7.9-17.7,17.7-17.7h315.1c9.8,0,17.7,7.9,17.7,17.7v188.4
		C425.2,378.6,424.4,379.4,423.4,379.4L423.4,379.4z M78.5,375.7h343.1V189.1c0-7.7-6.3-14-14-14H92.5c-7.7,0-14,6.3-14,14
		L78.5,375.7z"/>
	<path class="st2" d="M96.1,191.3h307.8c2.6,0,4.8,2.1,4.8,4.8v159.8c0,2.6-2.1,4.8-4.8,4.8H96.1c-2.6,0-4.8-2.1-4.8-4.8V196.1
		C91.3,193.5,93.4,191.3,96.1,191.3z"/>
	<path class="st1" d="M403.9,362.6H96.1c-3.7,0-6.6-3-6.7-6.6V196.1c0-3.7,3-6.6,6.7-6.6h307.8c3.7,0,6.6,3,6.6,6.6v159.8
		C410.5,359.6,407.6,362.6,403.9,362.6z M96.1,193.2c-1.6,0-2.9,1.3-2.9,2.9v159.8c0,1.6,1.3,2.9,2.9,2.9h307.8
		c1.6,0,2.9-1.3,2.9-2.9V196.1c0-1.6-1.3-2.9-2.9-2.9H96.1z"/>
	<path class="st3" d="M381.3,371.1H118.7c-1,0-1.9-0.8-1.9-1.9V235.9c0-1,0.8-1.9,1.8-1.9c0,0,0,0,0,0h262.7c1,0,1.9,0.8,1.9,1.8
		c0,0,0,0,0,0v133.3C383.2,370.2,382.4,371.1,381.3,371.1L381.3,371.1z M120.5,367.4h259V237.8h-259V367.4z"/>
	<path class="st0" d="M232.7,377.5h34.6l0,0v5c0,2-1.6,3.6-3.6,3.6l0,0h-27.5c-2,0-3.6-1.6-3.6-3.6l0,0L232.7,377.5L232.7,377.5z"/>
	<path class="st1" d="M260.7,388h-21.4c-4.7,0-8.5-3.8-8.5-8.5v-2c0-1,0.8-1.9,1.9-1.9h34.6c1,0,1.9,0.8,1.9,1.9v2
		C269.2,384.2,265.4,388,260.7,388z M234.5,379.4v0.1c0,2.6,2.1,4.8,4.8,4.8h21.4c2.6,0,4.8-2.1,4.8-4.8v-0.1H234.5z"/>
	<path class="st1" d="M408.7,221.6H91.3c-1,0.1-1.9-0.7-2-1.7c-0.1-1,0.7-1.9,1.7-2c0.1,0,0.2,0,0.3,0h317.4c1,0.1,1.8,1,1.7,2
		C410.4,220.8,409.6,221.5,408.7,221.6z"/>
	<circle class="st4" cx="110.2" cy="205.9" r="6"/>
	<path class="st1" d="M110.2,213.8c-4.3,0-7.8-3.5-7.8-7.8c0-4.3,3.5-7.8,7.8-7.8c4.3,0,7.8,3.5,7.8,7.8
		C118,210.3,114.5,213.8,110.2,213.8z M110.2,201.8c-2.3,0-4.1,1.8-4.1,4.1c0,2.3,1.8,4.1,4.1,4.1s4.1-1.8,4.1-4.1l0,0
		C114.3,203.6,112.5,201.8,110.2,201.8L110.2,201.8z"/>
	<circle class="st5" cx="127.9" cy="205.9" r="6"/>
	<path class="st1" d="M127.9,213.8c-4.3,0-7.8-3.5-7.8-7.8c0-4.3,3.5-7.8,7.8-7.8s7.8,3.5,7.8,7.8
		C135.7,210.3,132.2,213.8,127.9,213.8z M127.9,201.8c-2.3,0-4.1,1.8-4.1,4.1c0,2.3,1.8,4.1,4.1,4.1c2.3,0,4.1-1.8,4.1-4.1
		c0,0,0,0,0,0C132,203.6,130.2,201.8,127.9,201.8L127.9,201.8z"/>
	<circle class="st6" cx="145.6" cy="205.9" r="6"/>
	<path class="st1" d="M145.6,213.8c-4.3,0-7.8-3.5-7.8-7.8s3.5-7.8,7.8-7.8s7.8,3.5,7.8,7.8C153.5,210.3,150,213.8,145.6,213.8z
		 M145.6,201.8c-2.3,0-4.1,1.8-4.1,4.1c0,2.3,1.8,4.1,4.1,4.1c2.3,0,4.1-1.8,4.1-4.1c0,0,0,0,0,0
		C149.7,203.6,147.9,201.8,145.6,201.8L145.6,201.8z"/>
</g>
<g id="light">
	<g id="light-2">
		<polygon class="st2" points="299,377.5 203.3,377.5 229.2,312 273,312 		"/>
		<path class="st1" d="M299,379.4h-95.7c-1,0-1.9-0.8-1.9-1.8c0-0.2,0-0.5,0.1-0.7l25.9-65.5c0.3-0.7,1-1.2,1.7-1.2H273
			c0.8,0,1.4,0.5,1.7,1.2l25.9,65.5c0.2,0.6,0.1,1.2-0.2,1.7C300.1,379.1,299.6,379.4,299,379.4z M206,375.7h90.2l-24.5-61.8h-41.3
			L206,375.7z"/>
		<polygon class="st0" points="167.7,275.1 217.4,244.8 217.4,301.8 167.7,301.8 		"/>
		<path class="st1" d="M217.4,303.6h-49.7c-1,0-1.9-0.8-1.9-1.8c0,0,0,0,0,0v-26.6c0-0.6,0.3-1.3,0.9-1.6l49.7-30.3
			c0.9-0.5,2-0.3,2.5,0.6c0.2,0.3,0.3,0.6,0.3,1v56.9C219.2,302.8,218.4,303.6,217.4,303.6z M169.6,299.9h46v-51.7l-46,28V299.9z"/>
		<polygon class="st0" points="332.3,275.1 282.6,244.8 282.6,301.8 332.3,301.8 		"/>
		<path class="st1" d="M332.3,303.6h-49.7c-1,0-1.9-0.8-1.9-1.9v-56.9c0-1,0.8-1.9,1.8-1.9c0.3,0,0.7,0.1,1,0.3l49.7,30.3
			c0.6,0.3,0.9,0.9,0.9,1.6v26.6C334.1,302.8,333.3,303.6,332.3,303.6C332.3,303.6,332.3,303.6,332.3,303.6z M284.5,299.9h46v-23.7
			l-46-28V299.9z"/>
		<path class="st5" d="M320.6,161.6c0-37.9-30.7-68.6-68.6-68.5s-68.6,30.7-68.5,68.6c0,14.9,4.9,29.5,13.9,41.4
			c13.3,17.5,20.5,38.8,20.5,60.8h68.3c0-21.7,6.6-43,20-60.1C315.6,191.7,320.7,176.8,320.6,161.6z"/>
		<path class="st1" d="M286.2,265.6h-68.3c-1,0-1.9-0.8-1.9-1.8c0,0,0,0,0,0c-0.1-21.5-7.1-42.5-20.1-59.7
			c-23.5-31-17.4-75.2,13.7-98.6s75.2-17.4,98.6,13.7c9.3,12.2,14.3,27.1,14.3,42.5c0.1,15.7-5.2,30.9-14.8,43.2
			C295,221,288,241.9,288,263.7C288.1,264.8,287.2,265.6,286.2,265.6C286.2,265.6,286.2,265.6,286.2,265.6z M219.7,261.9h64.6
			c0.4-22,7.6-43,20.3-59.4c9.2-11.7,14.1-26.1,14.1-41c0-18.5-7.7-36.1-21.2-48.8C284,100,265.8,93.6,247.3,95
			c-36.8,2.6-64.4,34.5-61.8,71.3c0.9,12.9,5.6,25.2,13.4,35.5C212,219.1,219.3,240.2,219.7,261.9z"/>
		<polygon class="st1" points="282.6,317.2 219.6,317.2 227,301.8 275.2,301.8 		"/>
		<path class="st1" d="M282.6,319.1h-63c-1,0-1.9-0.9-1.9-1.9c0-0.3,0.1-0.5,0.2-0.8l7.4-15.4c0.3-0.6,1-1.1,1.7-1.1h48.2
			c0.7,0,1.4,0.4,1.7,1.1l7.4,15.5c0.4,0.9,0,2-0.9,2.5C283.2,319.1,282.9,319.1,282.6,319.1L282.6,319.1z M222.5,315.4h57.1
			l-5.6-11.8h-45.9L222.5,315.4z"/>
		<path class="st0" d="M213.9,282.8h74.5c2.4,0,4.3,1.9,4.3,4.3v10.4c0,2.4-1.9,4.3-4.3,4.3h-74.5c-2.4,0-4.3-1.9-4.3-4.3v-10.4
			C209.6,284.7,211.5,282.8,213.9,282.8z"/>
		<path class="st1" d="M284.7,303.6h-67.1c-5.4,0-9.8-4.4-9.8-9.8v-3.1c0-5.4,4.4-9.8,9.8-9.8h67.1c5.4,0,9.8,4.4,9.8,9.8v3.1
			C294.5,299.2,290.1,303.6,284.7,303.6z M217.5,284.6c-3.4,0-6.1,2.7-6.1,6.1v3.1c0,3.4,2.7,6.1,6.1,6.1h67.1
			c3.4,0,6.1-2.7,6.1-6.1v-3.1c0-3.4-2.7-6.1-6.1-6.1H217.5z"/>
		<path class="st0" d="M213.9,263.8h74.5c2.4,0,4.3,1.9,4.3,4.3v10.4c0,2.4-1.9,4.3-4.3,4.3h-74.5c-2.4,0-4.3-1.9-4.3-4.3v-10.4
			C209.6,265.7,211.5,263.8,213.9,263.8z"/>
		<path class="st1" d="M284.7,284.6h-67.1c-5.4,0-9.8-4.4-9.8-9.8v-3.1c0-5.4,4.4-9.8,9.8-9.8h67.1c5.4,0,9.8,4.4,9.8,9.8v3.1
			C294.5,280.3,290.1,284.6,284.7,284.6z M217.5,265.6c-3.4,0-6.1,2.7-6.1,6.1v3.1c0,3.4,2.7,6.1,6.1,6.1h67.1
			c3.4,0,6.1-2.7,6.1-6.1v-3.1c0-3.4-2.7-6.1-6.1-6.1H217.5z"/>
		<path class="st0" d="M213.9,244.8h74.5c2.4,0,4.3,1.9,4.3,4.3v10.4c0,2.4-1.9,4.3-4.3,4.3h-74.5c-2.4,0-4.3-1.9-4.3-4.3v-10.4
			C209.6,246.8,211.5,244.8,213.9,244.8z"/>
		<path class="st1" d="M284.7,265.7h-67.1c-5.4,0-9.8-4.4-9.8-9.8v-3.1c0-5.4,4.4-9.8,9.8-9.8h67.1c5.4,0,9.8,4.4,9.8,9.8v3.1
			C294.5,261.3,290.1,265.7,284.7,265.7z M217.5,246.7c-3.4,0-6.1,2.7-6.1,6.1v3.1c0,3.4,2.7,6.1,6.1,6.1h67.1
			c3.4,0,6.1-2.7,6.1-6.1v-3.1c0-3.4-2.7-6.1-6.1-6.1H217.5z"/>
		<path class="st2" d="M233.9,240.8c-0.9,0-1.7-0.6-1.8-1.5L215.6,152c-0.2-1,0.5-2,1.5-2.2c0.6-0.1,1.2,0.1,1.6,0.4l20.9,18.5
			l12.3-20.9c0.4-0.6,1-0.9,1.7-0.9c0.7,0,1.3,0.4,1.6,1l10.9,21.3l18.1-18.8c0.7-0.7,1.9-0.8,2.6-0.1c0.4,0.4,0.6,1,0.5,1.6
			l-14.1,87.1c-0.2,1-1.1,1.7-2.1,1.5s-1.7-1.1-1.5-2.1l13.2-81.2l-15.8,16.4c-0.7,0.7-1.9,0.8-2.6,0.1c-0.2-0.1-0.3-0.3-0.4-0.5
			l-10.6-20.6l-11.7,19.9c-0.3,0.5-0.8,0.8-1.3,0.9c-0.5,0.1-1.1-0.1-1.5-0.4l-18.5-16.4l15.5,82c0.2,1-0.5,2-1.5,2.2c0,0,0,0,0,0
			C234.1,240.8,234,240.8,233.9,240.8z"/>
		<path class="st1" d="M273.1,350.8c-0.8,0-1.5-0.5-1.7-1.2l-9.9-25.7c-0.4-0.9,0-2,0.9-2.5c0.9-0.4,2,0,2.5,0.9
			c0,0.1,0.1,0.2,0.1,0.2l9.9,25.7c0.4,1-0.1,2-1.1,2.4c0,0,0,0,0,0C273.5,350.7,273.3,350.8,273.1,350.8z"/>
		<path class="st1" d="M228.8,348.6c-0.2,0-0.4,0-0.6-0.1c-1-0.3-1.5-1.4-1.2-2.3c0,0,0,0,0,0l7-20.6c0.3-1,1.3-1.6,2.3-1.3
			s1.6,1.3,1.3,2.3c0,0.1,0,0.2-0.1,0.2l-7,20.6C230.3,348.1,229.6,348.6,228.8,348.6z"/>
		<path class="st1" d="M256,371.1c-1,0-1.8-0.7-1.9-1.7l-4-46c-0.1-1,0.6-2,1.6-2.1c1-0.1,2,0.6,2.1,1.6c0,0.1,0,0.1,0,0.2l4,46
			c0.1,1-0.7,1.9-1.7,2c0,0,0,0,0,0L256,371.1z"/>
	</g>
	<path class="st2" d="M283.2,377.5h153.5c-8-46-34.1-78.4-67.5-79.2s-39,51.5-39,51.5s-10.4-17-29.5-9.6
		C278,348.9,283.2,377.5,283.2,377.5z"/>
	<path class="st1" d="M436.7,379.4H283.2c-0.9,0-1.7-0.6-1.8-1.5c-0.1-0.3-5.2-30.2,18.7-39.4c14.5-5.5,24.4,2,28.9,6.9
		c1.3-7.7,3.5-15.1,6.5-22.3c7.6-17.7,19.3-26.8,33.8-26.6c33.7,0.8,60.9,32.5,69.3,80.8c0.2,1-0.5,2-1.5,2.1
		C436.9,379.4,436.8,379.4,436.7,379.4L436.7,379.4z M284.8,375.7h149.7c-8.5-45.2-34-74.8-65.4-75.5h-0.7
		c-30.8,0-36.4,49.3-36.4,49.8c-0.1,0.8-0.7,1.4-1.4,1.6c-0.8,0.2-1.6-0.2-2-0.8c-0.4-0.6-9.8-15.5-27.2-8.9
		C283,349,284.1,369.8,284.8,375.7L284.8,375.7z"/>
	<path class="st2" d="M243.6,377.5c0,0-10.9-20.7-31-14.2c0,0-11.1-26.9-30.6-26.9c-9.9,0.1-19.6,3.3-27.7,9
		c-19.4-44.4-49.2-34.8-66.5-21c-32.1,25.6-23.7,50.8-24.3,53.2H243.6z"/>
	<path class="st1" d="M243.6,379.4H63.5c-1,0-1.9-0.8-1.9-1.8c0-0.2,0-0.4,0.1-0.6c0-0.1-0.1-0.9-0.2-1.6
		c-0.8-7.4-3.3-29.9,25.1-52.5c7.3-5.8,21.8-14.9,37.8-11c12.4,3.1,22.7,13.4,30.6,30.6c8-5.1,17.3-8,26.8-8.1h0.2
		c18,0.1,28.9,20.7,31.7,26.6c20.3-5.3,31.5,15.4,31.6,15.6c0.5,0.9,0.1,2-0.8,2.5C244.3,379.2,244,379.3,243.6,379.4L243.6,379.4z
		 M65.2,375.7h175c-3.6-5.1-12.9-15.2-27.1-10.6c-0.9,0.3-1.9-0.2-2.3-1.1c-0.1-0.2-10.9-25.7-28.9-25.8h-0.2
		c-15.1,0-26.3,8.6-26.4,8.6c-0.8,0.6-2,0.5-2.6-0.4c-0.1-0.1-0.2-0.2-0.2-0.4c-7.6-17.4-17.4-27.7-29.1-30.6
		c-14.4-3.6-27.8,4.9-34.6,10.2c-26.8,21.4-24.5,42.4-23.8,49.2C65.2,375.3,65.2,375.5,65.2,375.7z"/>
	<path class="st1" d="M136.7,358.9c-1,0-1.9-0.8-1.9-1.9c0-0.3,0.1-0.6,0.2-0.9c0.3-0.5,6.5-12.1,16.8-12.8
		c6.6-0.5,13.2,3.6,19.4,12.1c0.6,0.8,0.4,2-0.4,2.6s-2,0.4-2.6-0.4c-5.5-7.4-10.9-11-16.2-10.6c-8.2,0.6-13.8,10.8-13.8,10.9
		C138,358.6,137.4,358.9,136.7,358.9z"/>
	<path class="st1" d="M320.6,364.8c-0.1,0-0.2,0-0.3,0c-1-0.2-1.7-1.1-1.5-2.1c0-0.2,3.3-18.3,26.1-15.6c1,0.1,1.8,1,1.7,2
		c-0.1,1-1,1.8-2,1.7c-0.1,0-0.1,0-0.2,0c-19.2-2.3-21.9,11.9-22,12.5C322.3,364.2,321.5,364.8,320.6,364.8z"/>
</g>
</svg>
